<svg width="503" height="503" viewBox="0 0 503 503" fill="none" xmlns="http://www.w3.org/2000/svg">
<path fill-rule="evenodd" clip-rule="evenodd" d="M472.224 130.848C429.51 52.8721 346.68 0 251.5 0C162.594 0 84.4621 46.1322 39.7368 115.765C21.8928 145.009 10.4557 176.018 4.47382 204.028C1.53716 219.401 0 235.271 0 251.5C0 259.357 0.360265 267.129 1.06517 274.802C5.12012 308.034 16.7489 348.035 38.4647 385.234C82.9712 455.983 161.745 503 251.5 503C341.359 503 420.21 455.872 464.687 384.99C481.816 356.389 492.825 326.055 498.669 298.21C501.512 283.074 503 267.461 503 251.5C503 235.637 501.533 220.117 498.722 205.068C493.799 181.298 485.173 155.676 472.224 130.848ZM146.914 55.2725L251.295 114.654L356.086 55.2725L313.553 136.024C324.375 141.366 350.169 159.366 366.771 188.625L447.933 146.914L387.935 251.705L447.728 356.086L366.771 313.142C362.25 323.758 345.196 349.347 313.142 366.771L355.881 447.522L251.5 388.14L147.119 447.522L189.858 367.182C176.433 359.031 146.873 336.854 136.024 313.348L55.6834 355.881L115.271 250.884L55.4779 146.708L136.024 189.447C142.325 178.009 161.79 151.311 189.241 136.024L146.914 55.2725ZM150.612 197.871C164.42 171.899 187.872 155.681 197.871 150.818L244.719 238.144C249.651 235.514 255.815 237.048 258.281 238.144L305.129 151.023C327.813 160.886 345.812 186.365 351.977 197.871L264.034 244.514C267.815 248.952 265.609 255.815 264.034 258.692L351.771 305.129C341.415 328.799 316.498 346.087 305.334 351.771L258.281 264.65C251.377 267.28 246.363 265.746 244.719 264.65L197.666 351.771C172.351 339.443 155.749 315.676 150.612 305.334L238.555 258.692C234.446 252.281 236.432 246.569 237.939 244.514L150.612 197.871Z" fill="white"/>
</svg>
